<svg xmlns="http://www.w3.org/2000/svg" xmlns:xlink="http://www.w3.org/1999/xlink" width="1969" height="3384" viewBox="0 0 1969 3384"><defs><style>.a{clip-path:url(#b);}.b{opacity:0.8;}.c{fill:#e7c8be;}.d{fill:#cba3a5;}.e{fill:#eaecbc;}.f{fill:#f0d7f1;}.g{fill:#d0d9cb;}.h{fill:#9bb6df;}.i{fill:#a8b7aa;}.j{fill:#fff;}</style><clipPath id="b"><rect width="1969" height="3384"/></clipPath></defs><g id="a" class="a"><rect class="j" width="1969" height="3384"/><g class="b" transform="translate(188.969 57)"><path class="c" d="M425.142,659.69c65.809,65.07,218.89,504.527,381.681,209.379s294.41-343.639,339.437-478.722S1000.787,43.983,772.187,5.883,356.55,123.647,224.931,217.165-72.942,397.274,34.431,584.311,359.333,594.62,425.142,659.69Z" transform="translate(1864.508 2244.331) rotate(131)"/><path class="d" d="M-3.884-994.535c116.614,4.653,277.582,21.743,395.259-3.76,123.688-26.806,198.906-101.248,121.152-288.252C361.255-1650.365,392.553-1832.275-102.993-1636s-260.814,392.541-229.516,449.986S-243.832-1004.109-3.884-994.535Z" transform="translate(-26.639 4517.244)"/><path class="e" d="M504.578,987.7c145.863-22.715,668.57,58.4,554.49-219.3S894.322,733.483,737.857,537.247s619.382,201.217,302.569-302.4S690.813,186.6,539.49,237.085s-701.8,31.853-492.675,295.468S314.3,446.816,347.333,550.878,267.505,1024.62,504.578,987.7Z" transform="translate(-473.455 1905.122) rotate(-65)"/><path class="f" d="M644.556,758.841c151.007,339.372,1163.485-191.4,746.574-418.461-154.674-84.238-374.844,51.36-480.982-199.018S-222.486-28.747,44.01,397.754,452.1,698.337,437.382,474.1,639.84,239.516,659.73,385.709C674.47,494.047,580.076,613.927,644.556,758.841Z" transform="translate(-472.96 880.94) rotate(-76)"/><path class="g" d="M510.679,648.98c67.541,58.536-112.69,525.851,291.719,242.152S502.985,512.719,657.46,142.811,226.048,220.225,36.933,377.821,443.138,590.444,510.679,648.98Z" transform="matrix(-0.259, 0.966, -0.966, -0.259, 2128.404, -50.953)"/><path class="h" d="M-1829.466-2968.527C-1748.337-2892.347-719.44-2210.5-589.632-2650s-430.1-340.383-532.866-422.422-33.833-554.782-261-349.683S-1910.6-3044.706-1829.466-2968.527Z" transform="translate(3282.189 6169.08)"/><path class="i" d="M-874.617,564.714c44.49-33.811,180.938-482.4,365.489-451.341S-171.065,225-143.738,146.759s-144.04-251.167-272.577-333.965S-429.679-189.96-679.8-176.44s-124.187-391.971-407.758-282.992-283.807,333.671-229.715,551.638S-1152.681,776.035-874.617,564.714Z" transform="matrix(0.978, -0.208, 0.208, 0.978, 2840.632, 1216.002)"/></g></g></svg>