<svg xmlns="http://www.w3.org/2000/svg" xmlns:xlink="http://www.w3.org/1999/xlink" width="1815" height="4250" viewBox="0 0 1815 4250"><defs><style>.a{clip-path:url(#b);}.b{opacity:0.27;}.c{fill:#ef8d6e;opacity:0.81;}.d{fill:#f9ff54;opacity:0.71;}.e{fill:#ee9b68;}.f{fill:#b3c8a6;}.g{fill:#c1deee;}.h{fill:#fccbfe;}.i{fill:#a695c1;}.j{fill:#4b7151;}.k{fill:#9dbbd8;}.l{fill:#a84549;}.m{fill:#fff;}</style><clipPath id="b"><rect width="1815" height="4250"/></clipPath></defs><g id="a" class="a"><rect class="m" width="1815" height="4250"/><g class="b" transform="translate(28.144 13.002) rotate(-3)"><path class="c" d="M268.54,12.522c95.518-5.669,208.73-46.857,269.428,59.84,61.061,107.335,12.994,261.044-10.175,395.884C505.48,598.1,487.945,735.765,411.133,810.517c-91.119,88.675-216.386,157.012-309.262,72.226-89.055-81.3-58.055-270.329-72.808-421.018-12.2-124.655-56.726-259.206-3.552-358.949C79.207,2.055,180.613,17.741,268.54,12.522Z" transform="matrix(-0.695, -0.719, 0.719, -0.695, 677.245, 2681.332)"/><path class="d" d="M386.976,1.305C519.739-1.752,672.705-6.853,753.33,82.8c79.662,88.583,25.522,209.864-7.269,317.8-31.077,102.3-64.054,208.721-169.643,264.543-119.625,63.243-277.1,95.657-399.486,36.342C59.98,644.8,54.505,512.668,29.824,400.226,7.018,296.326-30.606,183.244,44.711,99.119,121.374,13.49,260.38,4.221,386.976,1.305Z" transform="matrix(0.259, 0.966, -0.966, 0.259, 122.088, 2960.417)"/><path class="e" d="M205.278,7.743C286.339.922,379.967-16.239,434.6,41.688c56.645,60.063,42.491,152.22,19.891,230.3-21.053,72.737-67.265,134.552-136.06,171.058-74.5,39.532-168.933,72.71-240.806,28.926C9.427,430.43,26.983,335.7,16.048,258.84c-9.02-63.4-33.757-130.549,5.3-182.379C61.935,22.609,136.332,13.544,205.278,7.743Z" transform="translate(1464.155 1014.123) rotate(180)"/><path class="f" d="M3298.9,302.816c219.8,88.891,265.725,431.755-478.961,197.535s-26.243-299.124,111.539-296.3S3079.106,213.926,3298.9,302.816Z" transform="translate(-2520.649 -1046.099) rotate(21)"/><path class="g" d="M3707.35,640.89c106.4,175.085-182.521,351.223-307.483,304.64s-158.822-19.535-278.142,32.308-407.262-95.57-247.714-418.339c97.809-160.763,164.672-227.82,385.575-181.988s-5.59,208.52,157.045,248.144S3600.951,465.806,3707.35,640.89Z" transform="matrix(0.848, 0.53, -0.53, 0.848, -1683.689, -1075.151)"/><path class="h" d="M2848.984,1039.616c-133.652,463.133,97.67,559.832,97.67,559.832s243.583,158.183,454.93-306.961C3567.169,834.53,2982.636,576.482,2848.984,1039.616Z" transform="matrix(0.899, 0.438, -0.438, 0.899, -2312.873, -709.68)"/><path class="i" d="M137.241,111.146C396.767-165.811,394.83,177,536.212,57.885s203.361,35.83,77.47,172.371-88.122-20.336-339.9,238.221S-122.285,388.1,137.241,111.146Z" transform="translate(1709.557 -25.759) rotate(139)"/><path class="j" d="M161.114,484.961c-175.051-26.877-8.841-94.109-28.423-210.928S-120.988,15.094,82.787,17.687,598.38-89.007,562.928,206.153C551.109,315.616,336.164,511.838,161.114,484.961Z" transform="translate(57.393 2814.787) rotate(-22)"/><path class="k" d="M137.241,111.146C396.767-165.811,394.83,177,536.212,57.885s203.361,35.83,77.47,172.371-88.122-20.336-339.9,238.221S-122.285,388.1,137.241,111.146Z" transform="matrix(0.927, 0.375, -0.375, 0.927, 1241.919, 2477.295)"/><path class="i" d="M137.241,111.146C396.767-165.811,394.83,177,536.212,57.885s203.361,35.83,77.47,172.371-88.122-20.336-339.9,238.221S-122.285,388.1,137.241,111.146Z" transform="translate(1487.076 4219.416) rotate(139)"/><path class="f" d="M3298.9,302.816c219.8,88.891,265.725,431.755-478.961,197.535s-26.243-299.124,111.539-296.3S3079.106,213.926,3298.9,302.816Z" transform="translate(-708.136 -951.109) rotate(21)"/><path class="k" d="M137.241,111.146C396.767-165.811,394.83,177,536.212,57.885s203.361,35.83,77.47,172.371-88.122-20.336-339.9,238.221S-122.285,388.1,137.241,111.146Z" transform="matrix(0.927, 0.375, -0.375, 0.927, -570.594, 2382.306)"/><path class="d" d="M386.976,1.305C519.739-1.752,672.705-6.853,753.33,82.8c79.662,88.583,25.522,209.864-7.269,317.8-31.077,102.3-64.054,208.721-169.643,264.543-119.625,63.243-277.1,95.657-399.486,36.342C59.98,644.8,54.505,512.668,29.824,400.226,7.018,296.326-30.606,183.244,44.711,99.119,121.374,13.49,260.38,4.221,386.976,1.305Z" transform="matrix(0.259, 0.966, -0.966, 0.259, 1935.599, 3055.458)"/><path class="l" d="M6.849,322.583C-79.3,115.378,315.585-12.459,416.6-26.1S739.574,93.715,613.683,230.256,619.726,694.7,408.6,661.69,93,529.788,6.849,322.583Z" transform="matrix(0.927, 0.375, -0.375, 0.927, 618.207, 3200.644)"/><path class="h" d="M2848.984,1039.616c-133.652,463.133,97.67,559.832,97.67,559.832s243.583,158.183,454.93-306.961C3567.169,834.53,2982.636,576.482,2848.984,1039.616Z" transform="translate(-500.412 -613.691) rotate(26)"/></g></g></svg>