<svg xmlns="http://www.w3.org/2000/svg" xmlns:xlink="http://www.w3.org/1999/xlink" width="3891.073" height="731.371" viewBox="0 0 3891.073 731.371"><defs><style>.a{fill:#2e3233;}.b{fill:#fffaf3;}.c{filter:url(#c);}.d{filter:url(#a);}</style><filter id="a" x="0" y="0" width="3891.073" height="731.371" filterUnits="userSpaceOnUse"><feOffset dy="3" input="SourceAlpha"/><feGaussianBlur stdDeviation="5" result="b"/><feFlood flood-opacity="0.302"/><feComposite operator="in" in2="b"/><feComposite in="SourceGraphic"/></filter><filter id="c" x="0" y="0" width="3891.073" height="672.273" filterUnits="userSpaceOnUse"><feOffset dy="3" input="SourceAlpha"/><feGaussianBlur stdDeviation="5" result="d"/><feFlood flood-opacity="0.302"/><feComposite operator="in" in2="d"/><feComposite in="SourceGraphic"/></filter></defs><g transform="translate(15.475 12.037)"><g class="d" transform="matrix(1, 0, 0, 1, -15.47, -12.04)"><path class="a" d="M5878.454-2112.963c410.578,218.921,1460.739,181.348,2146.944-41.849,620.339-54.765,598.112,225.987,1713.2,237.147v-701.371H5878.454S5876.364-2107.522,5878.454-2112.963Z" transform="translate(-5862.53 2631.04)"/></g><g class="c" transform="matrix(1, 0, 0, 1, -15.47, -12.04)"><path class="b" d="M5878.454-2020.174C7253.64-2417.374,7365.148-1664,9738.6-2141.385c-7.669,0,0-477.652,0-477.652H5878.454S5876.364-2014.579,5878.454-2020.174Z" transform="translate(-5862.53 2631.04)"/></g></g></svg>