<svg xmlns="http://www.w3.org/2000/svg" xmlns:xlink="http://www.w3.org/1999/xlink" width="1385" height="1868" viewBox="0 0 1385 1868"><defs><style>.a{clip-path:url(#b);}.b{opacity:0.63;}.c{fill:#ef8d6e;}.d{fill:#a84549;opacity:0.71;}.e{fill:#ee9b68;}.f{fill:#b3c8a6;}.g{fill:#f0e9e1;}.h{fill:#e4d9ca;}.i{fill:#c1deee;}.j{fill:#fcabff;}.k{fill:#9dbbd8;}.l{fill:#4b7151;}</style><clipPath id="b"><rect width="1385" height="1868"/></clipPath></defs><g id="a" class="a"><g class="b" transform="translate(113 -292)"><path class="c" d="M115.765,3.737c41.177-1.692,89.982-13.982,116.148,17.856,26.323,32.029,5.6,77.9-4.386,118.134-9.619,38.75-17.178,79.829-50.291,102.136-39.281,26.461-93.282,46.853-133.32,21.552-38.391-24.26-25.027-80.668-31.387-125.634C7.268,100.583-11.925,60.433,11,30.669,34.145.613,77.861,5.294,115.765,3.737Z" transform="translate(1041.157 1134.531) rotate(-160.033)"/><path class="d" d="M122.064.485c41.877-1.137,90.128-3.033,115.559,30.294,25.128,32.929,8.05,78.012-2.293,118.135-9.8,38.026-20.2,77.587-53.511,98.338-37.733,23.509-87.407,35.558-126.01,13.509-36.89-21.071-38.617-70.189-46.4-111.986C2.214,110.152-9.654,68.117,14.1,36.845,38.285,5.015,82.132,1.569,122.064.485Z" transform="matrix(0.259, 0.966, -0.966, 0.259, 861.168, 1453.25)"/><path class="e" d="M115.178,2.951C160.661.351,213.194-6.19,243.847,15.89c31.783,22.894,23.841,58.022,11.161,87.785-11.812,27.725-37.741,51.287-76.341,65.2-41.8,15.068-94.786,27.715-135.113,11.026C5.289,164.067,15.14,127.958,9,98.662,3.944,74.5-9.936,48.9,11.98,29.145,34.751,8.618,76.494,5.163,115.178,2.951Z" transform="translate(289.736 1343.333) rotate(180)"/><path class="f" d="M2644.5,248.491c42.583,40.041,51.481,194.483-92.793,88.979S2546.625,202.73,2573.319,204,2601.919,208.45,2644.5,248.491Z" transform="translate(-2344.683 324.524)"/><path class="g" d="M2698.889,499.964C2514.56,561.475,2655,598.2,2637.446,689.088s256.012,10.1,286.734-39.477S2957.826,475.176,2698.889,499.964Z" transform="matrix(0.998, -0.07, 0.07, 0.998, -1987.309, 66.184)"/><path class="h" d="M2444.59,691.325c-68.427-15.88-160.2-66.294-129.72-146.232,42.73-113.178,89.3-27,143.579-24.69s142.05-77.377,128.191,97.01C2582.02,682.086,2513.016,707.2,2444.59,691.325Z" transform="translate(-1875.554 647.385)"/><path class="i" d="M2962.295,452.507c-10.007,19.356-21.331,21.068-41.741,12.9s-25.94-3.424-45.427,5.662-66.516-16.749-40.458-73.314c15.975-28.174,26.9-39.926,62.974-31.894s13.467,37.43,40.029,44.374S2972.3,433.151,2962.295,452.507Z" transform="translate(-2253.523 250.303)"/><path class="j" d="M2820.979,875.869c-43.629,152.7,31.883,184.584,31.883,184.584s79.514,52.155,148.505-101.209C3055.419,808.249,2864.607,723.167,2820.979,875.869Z" transform="translate(-2373.708 1027.125)"/><path class="k" d="M2890.521,600.6c77.529-82.736,76.951,19.672,119.187-15.911s60.751,10.7,23.143,51.493-26.325-6.075-101.54,71.165S2812.992,683.335,2890.521,600.6Z" transform="translate(-2679.826 291.381)"/><path class="l" d="M2444.59,691.325c-68.427-15.88-3.456-55.6-11.111-124.621s-99.162-152.986-19.507-151.455,201.543-63.037,187.685,111.35C2597.037,591.273,2513.016,707.2,2444.59,691.325Z" transform="matrix(-0.105, -0.995, 0.995, -0.105, -50.572, 4152.66)"/></g></g></svg>