<svg xmlns="http://www.w3.org/2000/svg" xmlns:xlink="http://www.w3.org/1999/xlink" width="1440" height="3971" viewBox="0 0 1440 3971"><defs><style>.a{clip-path:url(#b);}.b{opacity:0.39;}.c{fill:#ef8d6e;opacity:0.81;}.d{fill:#f9ff54;opacity:0.71;}.e{fill:#ee9b68;}.f{fill:#b3c8a6;}.g{fill:#f0e9e1;}.h{fill:#c1deee;}.i{fill:#fccbfe;}.j{fill:#9dbbd8;}.k{fill:#4b7151;}.l{fill:#fff;}</style><clipPath id="b"><rect width="1440" height="3971"/></clipPath></defs><g id="a" class="a"><rect class="l" width="1440" height="3971"/><g class="b" transform="translate(-201.856 3.002) rotate(-3)"><path class="c" d="M422.261,13.63c150.195-6.17,328.214-51,423.657,65.132,96.014,116.828,20.432,284.134-16,430.9C794.833,651,767.26,800.845,646.477,882.209c-143.279,96.519-340.252,170.9-486.292,78.614C20.152,872.333,68.9,666.582,45.7,502.565c-19.19-135.681-89.2-282.133-5.585-390.7C124.548,2.236,284,19.31,422.261,13.63Z" transform="matrix(-0.695, -0.719, 0.719, -0.695, 1256.751, 2195.432)"/><path class="d" d="M275.195,1.094c94.413-2.562,203.194-6.837,260.529,68.3,56.651,74.238,18.149,175.878-5.169,266.336-22.1,85.73-45.552,174.92-120.64,221.7-85.07,53-197.06,80.166-284.091,30.457-83.169-47.5-87.062-158.241-104.614-252.474C4.991,248.339-21.765,153.57,31.8,83.067,86.314,11.305,185.167,3.537,275.195,1.094Z" transform="matrix(0.259, 0.966, -0.966, 0.259, 767.959, 2080.047)"/><path class="e" d="M140.469,3.6C195.938.429,260.006-7.549,297.389,19.379,336.151,47.3,326.465,90.141,311,126.439c-14.406,33.813-46.028,62.549-93.1,79.519-50.977,18.377-115.6,33.8-164.78,13.447-46.666-19.313-34.653-63.351-42.135-99.079C4.81,90.855-12.118,59.638,14.61,35.544,42.381,10.51,93.29,6.3,140.469,3.6Z" transform="translate(1322.52 419.773) rotate(180)"/><path class="f" d="M2896.973,319.985c110.953,104.329,134.137,506.741-241.778,231.842s-13.248-351.075,56.3-347.763S2786.02,215.656,2896.973,319.985Z" transform="translate(-2487.683 -57.476)"/><path class="g" d="M176.6,5.912c-338.318,112.9-80.552,180.3-112.773,347.119S533.716,371.567,590.1,280.574,651.858-39.584,176.6,5.912Z" transform="matrix(0.998, -0.07, 0.07, 0.998, 1457.463, 2162.075)"/><path class="h" d="M3292.6,670.055c-34.436,66.608-73.4,72.5-143.637,44.405s-89.263-11.781-156.324,19.484-228.894-57.635-139.223-252.287c54.972-96.951,92.551-137.391,216.705-109.751s46.341,128.8,137.746,152.7S3327.038,603.447,3292.6,670.055Z" transform="translate(-1362.95 140.081)"/><path class="i" d="M2842.193,1001.772c-111.825,391.388,81.719,473.106,81.719,473.106s203.8,133.679,380.632-259.409C3443.086,828.456,2954.018,610.384,2842.193,1001.772Z" transform="translate(-2925.832 304.843)"/><path class="j" d="M137.241,111.146C396.767-165.811,394.83,177,536.212,57.885s203.361,35.83,77.47,172.371-88.122-20.336-339.9,238.221S-122.285,388.1,137.241,111.146Z" transform="translate(1277.629 3046.371) rotate(22)"/><path class="k" d="M113.073,514.433C-9.782,485.922,106.868,414.6,93.125,290.687S-84.912,16.012,58.1,18.762,419.955-94.416,395.074,218.681C386.779,334.8,235.927,542.943,113.073,514.433Z" transform="matrix(-0.105, -0.995, 0.995, -0.105, -68.829, 3387.643)"/></g></g></svg>