<svg xmlns="http://www.w3.org/2000/svg" xmlns:xlink="http://www.w3.org/1999/xlink" width="5980" height="1262" viewBox="0 0 5980 1262"><defs><style>.a{clip-path:url(#f);}.b{fill:#2e3233;}.c{fill:#fffaf3;}.d{filter:url(#c);}.e{filter:url(#a);}</style><filter id="a" x="-123.862" y="-12.423" width="6159.268" height="757.213" filterUnits="userSpaceOnUse"><feOffset dy="3" input="SourceAlpha"/><feGaussianBlur stdDeviation="5" result="b"/><feFlood flood-opacity="0.302"/><feComposite operator="in" in2="b"/><feComposite in="SourceGraphic"/></filter><filter id="c" x="-123.862" y="-12.423" width="6159.268" height="698.115" filterUnits="userSpaceOnUse"><feOffset dy="3" input="SourceAlpha"/><feGaussianBlur stdDeviation="5" result="d"/><feFlood flood-opacity="0.302"/><feComposite operator="in" in2="d"/><feComposite in="SourceGraphic"/></filter><clipPath id="f"><rect width="5980" height="1262"/></clipPath></defs><g id="e" class="a"><g transform="translate(-108.388 -0.386)"><g class="e" transform="matrix(1, 0, 0, 1, 108.39, 0.39)"><path class="b" d="M5879-2094.317c651.773,226.987,2318.853,188.029,3408.169-43.391,984.759-56.782,949.474,234.313,2719.624,245.884v-727.213H5879S5875.681-2088.675,5879-2094.317Z" transform="translate(-5986.39 2618.61)"/></g><g class="d" transform="matrix(1, 0, 0, 1, 108.39, 0.39)"><path class="c" d="M5879-1996.079c2183.042-413.182,2360.055,370.507,6127.793-126.088-12.174,0,0-496.871,0-496.871H5879S5875.681-1990.258,5879-1996.079Z" transform="translate(-5986.39 2618.61)"/></g></g></g></svg>