<?xml version="1.0" standalone="no"?>
<!DOCTYPE svg PUBLIC "-//W3C//DTD SVG 20010904//EN"
 "http://www.w3.org/TR/2001/REC-SVG-20010904/DTD/svg10.dtd">
<svg version="1.0" xmlns="http://www.w3.org/2000/svg"
 width="3312.000000pt" height="3312.000000pt" viewBox="0 0 3312.000000 3312.000000"
 preserveAspectRatio="xMidYMid meet">
<metadata>
Created by potrace 1.11, written by Peter Selinger 2001-2013
</metadata>
<g transform="translate(0.000000,3312.000000) scale(0.100000,-0.100000)"
fill="#000000" stroke="none">
<path d="M17700 30010 c-368 -15 -836 -51 -1135 -89 l-140 -17 110 -8 c780
-53 1412 -289 2030 -755 1308 -987 2271 -2942 2614 -5306 153 -1052 170 -1922
55 -2940 -227 -2026 -899 -3804 -1887 -4986 -221 -264 -526 -557 -782 -750
-491 -371 -1039 -613 -1600 -707 -108 -19 -171 -25 -455 -50 l-85 -7 195 -23
c546 -62 986 -86 1585 -86 715 0 1253 37 1885 129 1784 261 3244 870 4356
1820 71 60 209 188 307 285 260 254 421 438 626 710 764 1017 1220 2269 1376
3770 75 727 75 1573 0 2300 -178 1717 -745 3098 -1725 4195 -134 151 -428 438
-584 570 -1352 1154 -3211 1804 -5531 1935 -254 14 -960 20 -1215 10z"/>
<path d="M5320 29986 c0 -10 16 -17 48 -21 42 -6 158 -33 297 -70 57 -15 105
-31 153 -51 18 -8 37 -14 42 -14 10 0 168 -59 228 -86 17 -8 47 -20 65 -28 52
-23 248 -122 297 -150 25 -14 54 -30 65 -36 11 -6 32 -18 47 -28 14 -9 48 -30
75 -46 267 -162 607 -466 825 -736 183 -228 336 -483 447 -745 24 -55 46 -107
51 -116 12 -23 115 -335 129 -394 76 -298 110 -497 136 -780 62 -679 83 -6067
62 -15800 -5 -2130 -12 -3870 -18 -3945 -24 -361 -70 -660 -151 -985 -17 -66
-34 -138 -38 -161 -5 -22 -13 -51 -18 -65 -5 -13 -20 -58 -32 -99 -43 -145
-101 -310 -134 -385 -8 -16 -37 -86 -67 -155 -125 -296 -317 -618 -515 -865
-214 -267 -522 -536 -804 -701 -125 -74 -255 -135 -500 -236 -14 -6 -38 -14
-55 -19 -16 -4 -61 -18 -100 -30 -38 -11 -98 -26 -133 -33 -70 -12 -80 -26
-30 -40 42 -11 6860 0 8228 13 553 6 1320 12 1704 15 450 3 703 9 709 15 11
11 -30 31 -63 31 -11 0 -37 6 -57 14 -21 7 -65 21 -98 31 -33 9 -71 21 -85 27
-13 5 -63 22 -110 38 -47 16 -110 39 -140 50 -30 12 -71 27 -90 34 -99 37
-338 155 -485 240 -110 63 -146 87 -298 193 -121 86 -291 242 -431 398 -76 84
-206 249 -206 260 0 4 -13 24 -28 44 -53 67 -193 327 -252 466 -5 11 -18 41
-29 67 -12 26 -21 50 -21 53 0 4 -6 21 -14 38 -33 75 -99 295 -135 447 -82
350 -110 560 -143 1075 -9 147 -12 2796 -11 11683 2 8923 -1 11494 -10 11497
-18 6 -1350 25 -2462 35 -533 5 -1303 14 -1710 20 -407 6 -1129 15 -1605 19
-617 6 -865 12 -868 20 -3 8 -235 11 -833 11 -715 0 -829 -2 -829 -14z"/>
</g>
</svg>
